# Blender 4.0.1
# www.blender.org
mtllib box.mtl
o Cube
v -0.500000 0.500000 -0.500000
v -0.500000 -0.500000 -0.500000
v -0.500000 0.500000 0.500000
v -0.500000 -0.500000 0.500000
v 0.500000 0.500000 -0.500000
v 0.500000 -0.500000 -0.500000
v 0.500000 0.500000 0.500000
v 0.500000 -0.500000 0.500000
vn -1.0000 -0.0000 -0.0000
vn -0.0000 -0.0000 1.0000
vn 1.0000 -0.0000 -0.0000
vn -0.0000 -0.0000 -1.0000
vn -0.0000 1.0000 -0.0000
vn -0.0000 -1.0000 -0.0000
vt 1.000000 1.000000
vt 0.000000 -0.000000
vt 1.000000 0.000000
vt 1.000000 1.000000
vt -0.000000 0.000000
vt 1.000000 -0.000000
vt 1.000000 0.000000
vt 0.000000 1.000000
vt 0.000000 0.000000
vt 0.000000 1.000000
vt -0.000000 1.000000
vt 0.000000 0.000000
s 0
usemtl Material.001
f 2/1/1 3/2/1 1/3/1
f 4/4/2 7/5/2 3/6/2
f 8/4/3 5/5/3 7/6/3
f 6/4/4 1/5/4 5/6/4
f 7/7/5 1/8/5 3/9/5
f 4/10/6 6/3/6 8/1/6
f 2/1/1 4/11/1 3/2/1
f 4/4/2 8/8/2 7/5/2
f 8/4/3 6/8/3 5/5/3
f 6/4/4 2/8/4 1/5/4
f 7/7/5 5/4/5 1/8/5
f 4/10/6 2/12/6 6/3/6
